<mxfile host="app.diagrams.net" modified="2024-03-02T10:47:33.472Z" agent="Mozilla/5.0 (Macintosh; Intel Mac OS X 10_15_7) AppleWebKit/537.36 (KHTML, like Gecko) Chrome/119.0.0.0 Safari/537.36" etag="F3cVt6Pobbkw3exTldBy" version="23.1.6" type="github">
  <diagram id="C5RBs43oDa-KdzZeNtuy" name="Page-1">
    <mxGraphModel dx="2501" dy="1964" grid="1" gridSize="10" guides="1" tooltips="1" connect="1" arrows="1" fold="1" page="1" pageScale="1" pageWidth="827" pageHeight="1169" math="0" shadow="0">
      <root>
        <mxCell id="WIyWlLk6GJQsqaUBKTNV-0" />
        <mxCell id="WIyWlLk6GJQsqaUBKTNV-1" parent="WIyWlLk6GJQsqaUBKTNV-0" />
        <mxCell id="xUtmV8FWCzUYATDFEh71-2" value="" style="endArrow=none;html=1;rounded=0;" edge="1" parent="WIyWlLk6GJQsqaUBKTNV-1">
          <mxGeometry width="50" height="50" relative="1" as="geometry">
            <mxPoint x="710" y="1190" as="sourcePoint" />
            <mxPoint x="710" y="100" as="targetPoint" />
          </mxGeometry>
        </mxCell>
        <mxCell id="xUtmV8FWCzUYATDFEh71-3" value="" style="endArrow=none;html=1;rounded=0;" edge="1" parent="WIyWlLk6GJQsqaUBKTNV-1">
          <mxGeometry width="50" height="50" relative="1" as="geometry">
            <mxPoint x="1140" y="780" as="sourcePoint" />
            <mxPoint x="1140" y="100" as="targetPoint" />
          </mxGeometry>
        </mxCell>
        <mxCell id="xUtmV8FWCzUYATDFEh71-9" style="edgeStyle=orthogonalEdgeStyle;rounded=0;orthogonalLoop=1;jettySize=auto;html=1;exitX=0;exitY=0.5;exitDx=0;exitDy=0;entryX=1;entryY=0.5;entryDx=0;entryDy=0;" edge="1" parent="WIyWlLk6GJQsqaUBKTNV-1" source="xUtmV8FWCzUYATDFEh71-6" target="xUtmV8FWCzUYATDFEh71-8">
          <mxGeometry relative="1" as="geometry" />
        </mxCell>
        <mxCell id="xUtmV8FWCzUYATDFEh71-6" value="任务" style="ellipse;whiteSpace=wrap;html=1;aspect=fixed;" vertex="1" parent="WIyWlLk6GJQsqaUBKTNV-1">
          <mxGeometry x="957" y="110" width="80" height="80" as="geometry" />
        </mxCell>
        <mxCell id="xUtmV8FWCzUYATDFEh71-13" style="edgeStyle=orthogonalEdgeStyle;rounded=0;orthogonalLoop=1;jettySize=auto;html=1;exitX=0;exitY=0.5;exitDx=0;exitDy=0;entryX=1;entryY=0.5;entryDx=0;entryDy=0;" edge="1" parent="WIyWlLk6GJQsqaUBKTNV-1" source="xUtmV8FWCzUYATDFEh71-8" target="xUtmV8FWCzUYATDFEh71-11">
          <mxGeometry relative="1" as="geometry" />
        </mxCell>
        <mxCell id="xUtmV8FWCzUYATDFEh71-8" value="提交任务" style="rounded=0;whiteSpace=wrap;html=1;" vertex="1" parent="WIyWlLk6GJQsqaUBKTNV-1">
          <mxGeometry x="650" y="120" width="120" height="60" as="geometry" />
        </mxCell>
        <mxCell id="xUtmV8FWCzUYATDFEh71-10" value="" style="rounded=0;whiteSpace=wrap;html=1;" vertex="1" parent="WIyWlLk6GJQsqaUBKTNV-1">
          <mxGeometry x="162.25" y="385" width="75" height="260" as="geometry" />
        </mxCell>
        <mxCell id="xUtmV8FWCzUYATDFEh71-16" style="edgeStyle=orthogonalEdgeStyle;rounded=0;orthogonalLoop=1;jettySize=auto;html=1;exitX=0.5;exitY=1;exitDx=0;exitDy=0;entryX=0.5;entryY=0;entryDx=0;entryDy=0;" edge="1" parent="WIyWlLk6GJQsqaUBKTNV-1" source="xUtmV8FWCzUYATDFEh71-11" target="xUtmV8FWCzUYATDFEh71-38">
          <mxGeometry relative="1" as="geometry" />
        </mxCell>
        <mxCell id="xUtmV8FWCzUYATDFEh71-17" value="投递" style="edgeLabel;html=1;align=center;verticalAlign=middle;resizable=0;points=[];" vertex="1" connectable="0" parent="xUtmV8FWCzUYATDFEh71-16">
          <mxGeometry x="0.0359" y="2" relative="1" as="geometry">
            <mxPoint as="offset" />
          </mxGeometry>
        </mxCell>
        <mxCell id="xUtmV8FWCzUYATDFEh71-11" value="幂等" style="shape=process;whiteSpace=wrap;html=1;backgroundOutline=1;" vertex="1" parent="WIyWlLk6GJQsqaUBKTNV-1">
          <mxGeometry x="290" y="120" width="120" height="60" as="geometry" />
        </mxCell>
        <mxCell id="xUtmV8FWCzUYATDFEh71-12" value="DB" style="shape=cylinder3;whiteSpace=wrap;html=1;boundedLbl=1;backgroundOutline=1;size=15;" vertex="1" parent="WIyWlLk6GJQsqaUBKTNV-1">
          <mxGeometry x="175" y="20" width="60" height="80" as="geometry" />
        </mxCell>
        <mxCell id="xUtmV8FWCzUYATDFEh71-14" style="edgeStyle=orthogonalEdgeStyle;rounded=0;orthogonalLoop=1;jettySize=auto;html=1;exitX=0.5;exitY=0;exitDx=0;exitDy=0;entryX=1;entryY=0.5;entryDx=0;entryDy=0;entryPerimeter=0;" edge="1" parent="WIyWlLk6GJQsqaUBKTNV-1" source="xUtmV8FWCzUYATDFEh71-11" target="xUtmV8FWCzUYATDFEh71-12">
          <mxGeometry relative="1" as="geometry" />
        </mxCell>
        <mxCell id="xUtmV8FWCzUYATDFEh71-15" value="保存" style="edgeLabel;html=1;align=center;verticalAlign=middle;resizable=0;points=[];" vertex="1" connectable="0" parent="xUtmV8FWCzUYATDFEh71-14">
          <mxGeometry x="0.0514" relative="1" as="geometry">
            <mxPoint as="offset" />
          </mxGeometry>
        </mxCell>
        <mxCell id="xUtmV8FWCzUYATDFEh71-18" value="任务" style="ellipse;whiteSpace=wrap;html=1;aspect=fixed;" vertex="1" parent="WIyWlLk6GJQsqaUBKTNV-1">
          <mxGeometry x="177.25" y="405" width="40" height="40" as="geometry" />
        </mxCell>
        <mxCell id="xUtmV8FWCzUYATDFEh71-19" value="任务" style="ellipse;whiteSpace=wrap;html=1;aspect=fixed;" vertex="1" parent="WIyWlLk6GJQsqaUBKTNV-1">
          <mxGeometry x="177.25" y="525" width="40" height="40" as="geometry" />
        </mxCell>
        <mxCell id="xUtmV8FWCzUYATDFEh71-20" value="任务" style="ellipse;whiteSpace=wrap;html=1;aspect=fixed;" vertex="1" parent="WIyWlLk6GJQsqaUBKTNV-1">
          <mxGeometry x="177.25" y="465" width="40" height="40" as="geometry" />
        </mxCell>
        <mxCell id="xUtmV8FWCzUYATDFEh71-21" value="任务" style="ellipse;whiteSpace=wrap;html=1;aspect=fixed;" vertex="1" parent="WIyWlLk6GJQsqaUBKTNV-1">
          <mxGeometry x="177.25" y="585" width="40" height="40" as="geometry" />
        </mxCell>
        <mxCell id="xUtmV8FWCzUYATDFEh71-25" style="edgeStyle=orthogonalEdgeStyle;rounded=0;orthogonalLoop=1;jettySize=auto;html=1;exitX=0.5;exitY=0;exitDx=0;exitDy=0;" edge="1" parent="WIyWlLk6GJQsqaUBKTNV-1" source="xUtmV8FWCzUYATDFEh71-24" target="xUtmV8FWCzUYATDFEh71-10">
          <mxGeometry relative="1" as="geometry" />
        </mxCell>
        <mxCell id="xUtmV8FWCzUYATDFEh71-67" value="移出" style="edgeLabel;html=1;align=center;verticalAlign=middle;resizable=0;points=[];" vertex="1" connectable="0" parent="xUtmV8FWCzUYATDFEh71-25">
          <mxGeometry x="-0.0976" relative="1" as="geometry">
            <mxPoint as="offset" />
          </mxGeometry>
        </mxCell>
        <mxCell id="xUtmV8FWCzUYATDFEh71-104" style="edgeStyle=orthogonalEdgeStyle;rounded=0;orthogonalLoop=1;jettySize=auto;html=1;exitX=1;exitY=0.5;exitDx=0;exitDy=0;entryX=0;entryY=0.5;entryDx=0;entryDy=0;" edge="1" parent="WIyWlLk6GJQsqaUBKTNV-1" source="xUtmV8FWCzUYATDFEh71-24" target="xUtmV8FWCzUYATDFEh71-103">
          <mxGeometry relative="1" as="geometry" />
        </mxCell>
        <mxCell id="xUtmV8FWCzUYATDFEh71-24" value="执行线程" style="shape=hexagon;perimeter=hexagonPerimeter2;whiteSpace=wrap;html=1;fixedSize=1;" vertex="1" parent="WIyWlLk6GJQsqaUBKTNV-1">
          <mxGeometry x="160.25" y="740" width="79.75" height="55" as="geometry" />
        </mxCell>
        <mxCell id="xUtmV8FWCzUYATDFEh71-29" style="edgeStyle=orthogonalEdgeStyle;rounded=0;orthogonalLoop=1;jettySize=auto;html=1;exitX=1;exitY=0.5;exitDx=0;exitDy=0;entryX=0;entryY=0.5;entryDx=0;entryDy=0;" edge="1" parent="WIyWlLk6GJQsqaUBKTNV-1" source="xUtmV8FWCzUYATDFEh71-27" target="xUtmV8FWCzUYATDFEh71-98">
          <mxGeometry relative="1" as="geometry">
            <mxPoint x="930" y="610" as="targetPoint" />
          </mxGeometry>
        </mxCell>
        <mxCell id="xUtmV8FWCzUYATDFEh71-75" style="edgeStyle=orthogonalEdgeStyle;rounded=0;orthogonalLoop=1;jettySize=auto;html=1;exitX=0;exitY=0.75;exitDx=0;exitDy=0;entryX=1;entryY=0.5;entryDx=0;entryDy=0;" edge="1" parent="WIyWlLk6GJQsqaUBKTNV-1" source="xUtmV8FWCzUYATDFEh71-27" target="xUtmV8FWCzUYATDFEh71-74">
          <mxGeometry relative="1" as="geometry" />
        </mxCell>
        <mxCell id="xUtmV8FWCzUYATDFEh71-92" value="成功" style="edgeLabel;html=1;align=center;verticalAlign=middle;resizable=0;points=[];" vertex="1" connectable="0" parent="xUtmV8FWCzUYATDFEh71-75">
          <mxGeometry x="0.1842" y="3" relative="1" as="geometry">
            <mxPoint as="offset" />
          </mxGeometry>
        </mxCell>
        <mxCell id="xUtmV8FWCzUYATDFEh71-110" style="edgeStyle=orthogonalEdgeStyle;rounded=0;orthogonalLoop=1;jettySize=auto;html=1;exitX=0.25;exitY=0;exitDx=0;exitDy=0;entryX=0.5;entryY=1;entryDx=0;entryDy=0;" edge="1" parent="WIyWlLk6GJQsqaUBKTNV-1" source="xUtmV8FWCzUYATDFEh71-27" target="xUtmV8FWCzUYATDFEh71-119">
          <mxGeometry relative="1" as="geometry">
            <mxPoint x="650" y="510" as="targetPoint" />
          </mxGeometry>
        </mxCell>
        <mxCell id="xUtmV8FWCzUYATDFEh71-111" value="失败" style="edgeLabel;html=1;align=center;verticalAlign=middle;resizable=0;points=[];" vertex="1" connectable="0" parent="xUtmV8FWCzUYATDFEh71-110">
          <mxGeometry x="-0.14" y="-1" relative="1" as="geometry">
            <mxPoint as="offset" />
          </mxGeometry>
        </mxCell>
        <mxCell id="xUtmV8FWCzUYATDFEh71-27" value="提交作业&lt;br&gt;回调" style="rounded=0;whiteSpace=wrap;html=1;" vertex="1" parent="WIyWlLk6GJQsqaUBKTNV-1">
          <mxGeometry x="650" y="580" width="120" height="60" as="geometry" />
        </mxCell>
        <mxCell id="xUtmV8FWCzUYATDFEh71-32" style="edgeStyle=orthogonalEdgeStyle;rounded=0;orthogonalLoop=1;jettySize=auto;html=1;exitX=0;exitY=0.25;exitDx=0;exitDy=0;entryX=1;entryY=0.25;entryDx=0;entryDy=0;" edge="1" parent="WIyWlLk6GJQsqaUBKTNV-1" source="xUtmV8FWCzUYATDFEh71-31" target="xUtmV8FWCzUYATDFEh71-27">
          <mxGeometry relative="1" as="geometry" />
        </mxCell>
        <mxCell id="xUtmV8FWCzUYATDFEh71-33" value="返回结果 成功/失败" style="edgeLabel;html=1;align=center;verticalAlign=middle;resizable=0;points=[];" vertex="1" connectable="0" parent="xUtmV8FWCzUYATDFEh71-32">
          <mxGeometry x="0.1018" y="1" relative="1" as="geometry">
            <mxPoint as="offset" />
          </mxGeometry>
        </mxCell>
        <mxCell id="xUtmV8FWCzUYATDFEh71-31" value="执行作业" style="rounded=1;whiteSpace=wrap;html=1;" vertex="1" parent="WIyWlLk6GJQsqaUBKTNV-1">
          <mxGeometry x="950" y="580" width="120" height="60" as="geometry" />
        </mxCell>
        <mxCell id="xUtmV8FWCzUYATDFEh71-35" value="扫描线程" style="shape=hexagon;perimeter=hexagonPerimeter2;whiteSpace=wrap;html=1;fixedSize=1;" vertex="1" parent="WIyWlLk6GJQsqaUBKTNV-1">
          <mxGeometry x="-60" y="20" width="120" height="80" as="geometry" />
        </mxCell>
        <mxCell id="xUtmV8FWCzUYATDFEh71-36" style="edgeStyle=orthogonalEdgeStyle;rounded=0;orthogonalLoop=1;jettySize=auto;html=1;exitX=1;exitY=0.5;exitDx=0;exitDy=0;entryX=0.5;entryY=0;entryDx=0;entryDy=0;" edge="1" parent="WIyWlLk6GJQsqaUBKTNV-1" source="xUtmV8FWCzUYATDFEh71-35" target="xUtmV8FWCzUYATDFEh71-37">
          <mxGeometry relative="1" as="geometry" />
        </mxCell>
        <mxCell id="xUtmV8FWCzUYATDFEh71-43" style="edgeStyle=orthogonalEdgeStyle;rounded=0;orthogonalLoop=1;jettySize=auto;html=1;exitX=0.5;exitY=1;exitDx=0;exitDy=0;entryX=0;entryY=0.5;entryDx=0;entryDy=0;" edge="1" parent="WIyWlLk6GJQsqaUBKTNV-1" source="xUtmV8FWCzUYATDFEh71-37" target="xUtmV8FWCzUYATDFEh71-38">
          <mxGeometry relative="1" as="geometry" />
        </mxCell>
        <mxCell id="xUtmV8FWCzUYATDFEh71-44" value="尝试投递" style="edgeLabel;html=1;align=center;verticalAlign=middle;resizable=0;points=[];" vertex="1" connectable="0" parent="xUtmV8FWCzUYATDFEh71-43">
          <mxGeometry x="-0.3486" relative="1" as="geometry">
            <mxPoint as="offset" />
          </mxGeometry>
        </mxCell>
        <mxCell id="xUtmV8FWCzUYATDFEh71-81" style="edgeStyle=orthogonalEdgeStyle;rounded=0;orthogonalLoop=1;jettySize=auto;html=1;exitX=0.25;exitY=1;exitDx=0;exitDy=0;entryX=0.5;entryY=0;entryDx=0;entryDy=0;" edge="1" parent="WIyWlLk6GJQsqaUBKTNV-1" source="xUtmV8FWCzUYATDFEh71-37" target="xUtmV8FWCzUYATDFEh71-82">
          <mxGeometry relative="1" as="geometry">
            <mxPoint x="60" y="370" as="targetPoint" />
          </mxGeometry>
        </mxCell>
        <mxCell id="xUtmV8FWCzUYATDFEh71-37" value="获取等待中/执行中任务&lt;br&gt;尝试投递到队列中" style="rounded=0;whiteSpace=wrap;html=1;" vertex="1" parent="WIyWlLk6GJQsqaUBKTNV-1">
          <mxGeometry x="10" y="120" width="150" height="60" as="geometry" />
        </mxCell>
        <mxCell id="xUtmV8FWCzUYATDFEh71-39" style="edgeStyle=orthogonalEdgeStyle;rounded=0;orthogonalLoop=1;jettySize=auto;html=1;exitX=1;exitY=0.5;exitDx=0;exitDy=0;entryX=1;entryY=0.5;entryDx=0;entryDy=0;" edge="1" parent="WIyWlLk6GJQsqaUBKTNV-1" source="xUtmV8FWCzUYATDFEh71-38" target="xUtmV8FWCzUYATDFEh71-18">
          <mxGeometry relative="1" as="geometry" />
        </mxCell>
        <mxCell id="xUtmV8FWCzUYATDFEh71-40" value="投递" style="edgeLabel;html=1;align=center;verticalAlign=middle;resizable=0;points=[];" vertex="1" connectable="0" parent="xUtmV8FWCzUYATDFEh71-39">
          <mxGeometry x="-0.1319" y="2" relative="1" as="geometry">
            <mxPoint as="offset" />
          </mxGeometry>
        </mxCell>
        <mxCell id="xUtmV8FWCzUYATDFEh71-38" value="队列未满" style="rhombus;whiteSpace=wrap;html=1;" vertex="1" parent="WIyWlLk6GJQsqaUBKTNV-1">
          <mxGeometry x="165" y="250" width="85" height="60" as="geometry" />
        </mxCell>
        <mxCell id="xUtmV8FWCzUYATDFEh71-41" style="edgeStyle=orthogonalEdgeStyle;rounded=0;orthogonalLoop=1;jettySize=auto;html=1;exitX=1;exitY=0.5;exitDx=0;exitDy=0;entryX=0.5;entryY=1;entryDx=0;entryDy=0;entryPerimeter=0;" edge="1" parent="WIyWlLk6GJQsqaUBKTNV-1" source="xUtmV8FWCzUYATDFEh71-37" target="xUtmV8FWCzUYATDFEh71-12">
          <mxGeometry relative="1" as="geometry" />
        </mxCell>
        <mxCell id="xUtmV8FWCzUYATDFEh71-42" value="拉取" style="edgeLabel;html=1;align=center;verticalAlign=middle;resizable=0;points=[];" vertex="1" connectable="0" parent="xUtmV8FWCzUYATDFEh71-41">
          <mxGeometry x="0.2421" y="1" relative="1" as="geometry">
            <mxPoint as="offset" />
          </mxGeometry>
        </mxCell>
        <mxCell id="xUtmV8FWCzUYATDFEh71-46" value="优先级队列" style="text;html=1;align=center;verticalAlign=middle;whiteSpace=wrap;rounded=0;" vertex="1" parent="WIyWlLk6GJQsqaUBKTNV-1">
          <mxGeometry x="165" y="360" width="75" height="35" as="geometry" />
        </mxCell>
        <mxCell id="xUtmV8FWCzUYATDFEh71-54" value="" style="rounded=0;whiteSpace=wrap;html=1;strokeColor=#33FFFF;" vertex="1" parent="WIyWlLk6GJQsqaUBKTNV-1">
          <mxGeometry x="307" y="275" width="71" height="120" as="geometry" />
        </mxCell>
        <mxCell id="xUtmV8FWCzUYATDFEh71-55" value="任务" style="ellipse;whiteSpace=wrap;html=1;aspect=fixed;strokeColor=#33FFFF;" vertex="1" parent="WIyWlLk6GJQsqaUBKTNV-1">
          <mxGeometry x="321" y="280" width="40" height="40" as="geometry" />
        </mxCell>
        <mxCell id="xUtmV8FWCzUYATDFEh71-56" value="延迟队列" style="text;html=1;align=center;verticalAlign=middle;whiteSpace=wrap;rounded=0;strokeColor=#33FFFF;" vertex="1" parent="WIyWlLk6GJQsqaUBKTNV-1">
          <mxGeometry x="309.5" y="245" width="66" height="30" as="geometry" />
        </mxCell>
        <mxCell id="xUtmV8FWCzUYATDFEh71-57" value="任务" style="ellipse;whiteSpace=wrap;html=1;aspect=fixed;strokeColor=#33FFFF;" vertex="1" parent="WIyWlLk6GJQsqaUBKTNV-1">
          <mxGeometry x="321" y="340" width="40" height="40" as="geometry" />
        </mxCell>
        <mxCell id="xUtmV8FWCzUYATDFEh71-60" value="重试次数" style="rhombus;whiteSpace=wrap;html=1;strokeColor=#33FFFF;" vertex="1" parent="WIyWlLk6GJQsqaUBKTNV-1">
          <mxGeometry x="290" y="540" width="105" height="45" as="geometry" />
        </mxCell>
        <mxCell id="xUtmV8FWCzUYATDFEh71-62" style="edgeStyle=orthogonalEdgeStyle;rounded=0;orthogonalLoop=1;jettySize=auto;html=1;exitX=0.5;exitY=0;exitDx=0;exitDy=0;entryX=0.5;entryY=1;entryDx=0;entryDy=0;strokeColor=#33FFFF;" edge="1" parent="WIyWlLk6GJQsqaUBKTNV-1" source="xUtmV8FWCzUYATDFEh71-61" target="xUtmV8FWCzUYATDFEh71-54">
          <mxGeometry relative="1" as="geometry" />
        </mxCell>
        <mxCell id="xUtmV8FWCzUYATDFEh71-63" style="edgeStyle=orthogonalEdgeStyle;rounded=0;orthogonalLoop=1;jettySize=auto;html=1;exitX=0.5;exitY=1;exitDx=0;exitDy=0;entryX=0.5;entryY=0;entryDx=0;entryDy=0;strokeColor=#33FFFF;" edge="1" parent="WIyWlLk6GJQsqaUBKTNV-1" source="xUtmV8FWCzUYATDFEh71-61" target="xUtmV8FWCzUYATDFEh71-60">
          <mxGeometry relative="1" as="geometry" />
        </mxCell>
        <mxCell id="xUtmV8FWCzUYATDFEh71-61" value="重试线程" style="shape=hexagon;perimeter=hexagonPerimeter2;whiteSpace=wrap;html=1;fixedSize=1;strokeColor=#33FFFF;" vertex="1" parent="WIyWlLk6GJQsqaUBKTNV-1">
          <mxGeometry x="302.37" y="445" width="80.25" height="55" as="geometry" />
        </mxCell>
        <mxCell id="xUtmV8FWCzUYATDFEh71-64" style="edgeStyle=orthogonalEdgeStyle;rounded=0;orthogonalLoop=1;jettySize=auto;html=1;exitX=0;exitY=0.5;exitDx=0;exitDy=0;entryX=0.983;entryY=0.858;entryDx=0;entryDy=0;entryPerimeter=0;strokeColor=#33FFFF;" edge="1" parent="WIyWlLk6GJQsqaUBKTNV-1" source="xUtmV8FWCzUYATDFEh71-60" target="xUtmV8FWCzUYATDFEh71-10">
          <mxGeometry relative="1" as="geometry" />
        </mxCell>
        <mxCell id="xUtmV8FWCzUYATDFEh71-65" value="&lt;h1&gt;队列&lt;/h1&gt;&lt;div&gt;1、队列类型&lt;/div&gt;&lt;div&gt;2、回调接口&lt;/div&gt;&lt;div&gt;3、最大容量&lt;/div&gt;&lt;div&gt;4、并发数量&lt;/div&gt;&lt;div&gt;5、初始化消费者&lt;/div&gt;&lt;div&gt;6、回调限频&lt;/div&gt;" style="text;html=1;spacing=5;spacingTop=-20;whiteSpace=wrap;overflow=hidden;rounded=0;" vertex="1" parent="WIyWlLk6GJQsqaUBKTNV-1">
          <mxGeometry y="-160" width="190" height="140" as="geometry" />
        </mxCell>
        <mxCell id="xUtmV8FWCzUYATDFEh71-66" value="&lt;h1&gt;任务&lt;/h1&gt;&lt;div&gt;1、业务id&lt;/div&gt;&lt;div&gt;2、使用的队列&lt;/div&gt;&lt;div&gt;3、优先级，以等待时间作为依据&lt;/div&gt;&lt;div&gt;4、最大重试次数&lt;/div&gt;" style="text;html=1;spacing=5;spacingTop=-20;whiteSpace=wrap;overflow=hidden;rounded=0;" vertex="1" parent="WIyWlLk6GJQsqaUBKTNV-1">
          <mxGeometry x="827" y="-120" width="190" height="120" as="geometry" />
        </mxCell>
        <mxCell id="xUtmV8FWCzUYATDFEh71-74" value="更新任务状态&lt;br&gt;进行中" style="rounded=1;whiteSpace=wrap;html=1;" vertex="1" parent="WIyWlLk6GJQsqaUBKTNV-1">
          <mxGeometry x="327.25" y="840" width="90" height="40" as="geometry" />
        </mxCell>
        <mxCell id="xUtmV8FWCzUYATDFEh71-85" style="edgeStyle=orthogonalEdgeStyle;rounded=0;orthogonalLoop=1;jettySize=auto;html=1;exitX=0.5;exitY=0;exitDx=0;exitDy=0;entryX=0.5;entryY=1;entryDx=0;entryDy=0;" edge="1" parent="WIyWlLk6GJQsqaUBKTNV-1" source="xUtmV8FWCzUYATDFEh71-76" target="xUtmV8FWCzUYATDFEh71-77">
          <mxGeometry relative="1" as="geometry" />
        </mxCell>
        <mxCell id="xUtmV8FWCzUYATDFEh71-172" value="移出" style="edgeLabel;html=1;align=center;verticalAlign=middle;resizable=0;points=[];" vertex="1" connectable="0" parent="xUtmV8FWCzUYATDFEh71-85">
          <mxGeometry x="-0.025" y="-2" relative="1" as="geometry">
            <mxPoint as="offset" />
          </mxGeometry>
        </mxCell>
        <mxCell id="xUtmV8FWCzUYATDFEh71-101" style="edgeStyle=orthogonalEdgeStyle;rounded=0;orthogonalLoop=1;jettySize=auto;html=1;exitX=1;exitY=0.5;exitDx=0;exitDy=0;entryX=0;entryY=0.5;entryDx=0;entryDy=0;" edge="1" parent="WIyWlLk6GJQsqaUBKTNV-1" source="xUtmV8FWCzUYATDFEh71-76" target="xUtmV8FWCzUYATDFEh71-100">
          <mxGeometry relative="1" as="geometry" />
        </mxCell>
        <mxCell id="xUtmV8FWCzUYATDFEh71-76" value="检查线程" style="shape=hexagon;perimeter=hexagonPerimeter2;whiteSpace=wrap;html=1;fixedSize=1;" vertex="1" parent="WIyWlLk6GJQsqaUBKTNV-1">
          <mxGeometry x="7.629999999999993" y="950" width="79.75" height="55" as="geometry" />
        </mxCell>
        <mxCell id="xUtmV8FWCzUYATDFEh71-77" value="" style="rounded=0;whiteSpace=wrap;html=1;" vertex="1" parent="WIyWlLk6GJQsqaUBKTNV-1">
          <mxGeometry x="10" y="610" width="75" height="260" as="geometry" />
        </mxCell>
        <mxCell id="xUtmV8FWCzUYATDFEh71-79" value="优先级队列" style="text;html=1;align=center;verticalAlign=middle;whiteSpace=wrap;rounded=0;" vertex="1" parent="WIyWlLk6GJQsqaUBKTNV-1">
          <mxGeometry x="10" y="580" width="75" height="35" as="geometry" />
        </mxCell>
        <mxCell id="xUtmV8FWCzUYATDFEh71-80" value="任务" style="ellipse;whiteSpace=wrap;html=1;aspect=fixed;" vertex="1" parent="WIyWlLk6GJQsqaUBKTNV-1">
          <mxGeometry x="27.5" y="625" width="40" height="40" as="geometry" />
        </mxCell>
        <mxCell id="xUtmV8FWCzUYATDFEh71-94" style="edgeStyle=orthogonalEdgeStyle;rounded=0;orthogonalLoop=1;jettySize=auto;html=1;exitX=0;exitY=0.5;exitDx=0;exitDy=0;entryX=0;entryY=0.5;entryDx=0;entryDy=0;" edge="1" parent="WIyWlLk6GJQsqaUBKTNV-1" source="xUtmV8FWCzUYATDFEh71-82" target="xUtmV8FWCzUYATDFEh71-80">
          <mxGeometry relative="1" as="geometry" />
        </mxCell>
        <mxCell id="xUtmV8FWCzUYATDFEh71-82" value="队列未满" style="rhombus;whiteSpace=wrap;html=1;" vertex="1" parent="WIyWlLk6GJQsqaUBKTNV-1">
          <mxGeometry x="5" y="440" width="85" height="60" as="geometry" />
        </mxCell>
        <mxCell id="xUtmV8FWCzUYATDFEh71-84" value="&lt;h1&gt;任务状态&lt;/h1&gt;&lt;div&gt;1、等待中：在队列中或将要进入队列中&amp;nbsp;&lt;br style=&quot;border-color: var(--border-color);&quot;&gt;2、执行中：执行线程已经拉取任务，并提交作业&lt;br style=&quot;border-color: var(--border-color);&quot;&gt;3、结束&lt;br style=&quot;border-color: var(--border-color);&quot;&gt;&lt;br style=&quot;border-color: var(--border-color);&quot;&gt;&lt;div style=&quot;border-color: var(--border-color);&quot;&gt;&lt;br style=&quot;border-color: var(--border-color);&quot;&gt;&lt;/div&gt;&lt;/div&gt;" style="text;html=1;spacing=5;spacingTop=-20;whiteSpace=wrap;overflow=hidden;rounded=0;" vertex="1" parent="WIyWlLk6GJQsqaUBKTNV-1">
          <mxGeometry x="-450" y="440" width="290" height="125" as="geometry" />
        </mxCell>
        <mxCell id="xUtmV8FWCzUYATDFEh71-86" value="任务" style="ellipse;whiteSpace=wrap;html=1;aspect=fixed;" vertex="1" parent="WIyWlLk6GJQsqaUBKTNV-1">
          <mxGeometry x="27.5" y="680" width="40" height="40" as="geometry" />
        </mxCell>
        <mxCell id="xUtmV8FWCzUYATDFEh71-87" value="任务" style="ellipse;whiteSpace=wrap;html=1;aspect=fixed;" vertex="1" parent="WIyWlLk6GJQsqaUBKTNV-1">
          <mxGeometry x="27.5" y="800" width="40" height="40" as="geometry" />
        </mxCell>
        <mxCell id="xUtmV8FWCzUYATDFEh71-88" value="任务" style="ellipse;whiteSpace=wrap;html=1;aspect=fixed;" vertex="1" parent="WIyWlLk6GJQsqaUBKTNV-1">
          <mxGeometry x="27.5" y="740" width="40" height="40" as="geometry" />
        </mxCell>
        <mxCell id="xUtmV8FWCzUYATDFEh71-93" style="edgeStyle=orthogonalEdgeStyle;rounded=0;orthogonalLoop=1;jettySize=auto;html=1;exitX=0;exitY=0.5;exitDx=0;exitDy=0;exitPerimeter=0;entryX=1;entryY=0.5;entryDx=0;entryDy=0;" edge="1" parent="WIyWlLk6GJQsqaUBKTNV-1" source="xUtmV8FWCzUYATDFEh71-89" target="xUtmV8FWCzUYATDFEh71-82">
          <mxGeometry relative="1" as="geometry">
            <mxPoint x="130" y="630" as="targetPoint" />
          </mxGeometry>
        </mxCell>
        <mxCell id="xUtmV8FWCzUYATDFEh71-89" value="DB" style="shape=cylinder3;whiteSpace=wrap;html=1;boundedLbl=1;backgroundOutline=1;size=15;" vertex="1" parent="WIyWlLk6GJQsqaUBKTNV-1">
          <mxGeometry x="170.13" y="820" width="60" height="80" as="geometry" />
        </mxCell>
        <mxCell id="xUtmV8FWCzUYATDFEh71-90" style="edgeStyle=orthogonalEdgeStyle;rounded=0;orthogonalLoop=1;jettySize=auto;html=1;exitX=0;exitY=0.5;exitDx=0;exitDy=0;entryX=1;entryY=0.5;entryDx=0;entryDy=0;entryPerimeter=0;" edge="1" parent="WIyWlLk6GJQsqaUBKTNV-1" source="xUtmV8FWCzUYATDFEh71-74" target="xUtmV8FWCzUYATDFEh71-89">
          <mxGeometry relative="1" as="geometry" />
        </mxCell>
        <mxCell id="xUtmV8FWCzUYATDFEh71-142" style="edgeStyle=orthogonalEdgeStyle;rounded=0;orthogonalLoop=1;jettySize=auto;html=1;exitX=1;exitY=0.5;exitDx=0;exitDy=0;entryX=0;entryY=0.5;entryDx=0;entryDy=0;" edge="1" parent="WIyWlLk6GJQsqaUBKTNV-1" source="xUtmV8FWCzUYATDFEh71-95" target="xUtmV8FWCzUYATDFEh71-115">
          <mxGeometry relative="1" as="geometry" />
        </mxCell>
        <mxCell id="xUtmV8FWCzUYATDFEh71-150" style="edgeStyle=orthogonalEdgeStyle;rounded=0;orthogonalLoop=1;jettySize=auto;html=1;exitX=0.25;exitY=1;exitDx=0;exitDy=0;entryX=1;entryY=0.5;entryDx=0;entryDy=0;" edge="1" parent="WIyWlLk6GJQsqaUBKTNV-1" source="xUtmV8FWCzUYATDFEh71-95" target="xUtmV8FWCzUYATDFEh71-149">
          <mxGeometry relative="1" as="geometry" />
        </mxCell>
        <mxCell id="xUtmV8FWCzUYATDFEh71-95" value="检查作业&lt;br&gt;回调" style="rounded=0;whiteSpace=wrap;html=1;" vertex="1" parent="WIyWlLk6GJQsqaUBKTNV-1">
          <mxGeometry x="650" y="947.5" width="120" height="60" as="geometry" />
        </mxCell>
        <mxCell id="xUtmV8FWCzUYATDFEh71-97" value="&lt;h1&gt;TASK&lt;/h1&gt;&lt;div&gt;1、队列-多种类型-优先级&lt;br style=&quot;border-color: var(--border-color);&quot;&gt;2、限制限制并行任务数量&lt;br style=&quot;border-color: var(--border-color);&quot;&gt;3、一个任务不能阻塞后续任务处理&lt;br&gt;&lt;/div&gt;" style="text;html=1;spacing=5;spacingTop=-20;whiteSpace=wrap;overflow=hidden;rounded=0;" vertex="1" parent="WIyWlLk6GJQsqaUBKTNV-1">
          <mxGeometry x="-450" y="250" width="330" height="130" as="geometry" />
        </mxCell>
        <mxCell id="xUtmV8FWCzUYATDFEh71-99" style="edgeStyle=orthogonalEdgeStyle;rounded=0;orthogonalLoop=1;jettySize=auto;html=1;exitX=1;exitY=0.5;exitDx=0;exitDy=0;entryX=0;entryY=0.5;entryDx=0;entryDy=0;" edge="1" parent="WIyWlLk6GJQsqaUBKTNV-1" source="xUtmV8FWCzUYATDFEh71-98" target="xUtmV8FWCzUYATDFEh71-31">
          <mxGeometry relative="1" as="geometry" />
        </mxCell>
        <mxCell id="xUtmV8FWCzUYATDFEh71-107" style="edgeStyle=orthogonalEdgeStyle;rounded=0;orthogonalLoop=1;jettySize=auto;html=1;exitX=0.5;exitY=1;exitDx=0;exitDy=0;entryX=0.75;entryY=1;entryDx=0;entryDy=0;" edge="1" parent="WIyWlLk6GJQsqaUBKTNV-1" source="xUtmV8FWCzUYATDFEh71-98" target="xUtmV8FWCzUYATDFEh71-27">
          <mxGeometry relative="1" as="geometry" />
        </mxCell>
        <mxCell id="xUtmV8FWCzUYATDFEh71-108" value="重试" style="edgeLabel;html=1;align=center;verticalAlign=middle;resizable=0;points=[];" vertex="1" connectable="0" parent="xUtmV8FWCzUYATDFEh71-107">
          <mxGeometry x="-0.0977" y="3" relative="1" as="geometry">
            <mxPoint as="offset" />
          </mxGeometry>
        </mxCell>
        <mxCell id="xUtmV8FWCzUYATDFEh71-98" value="抢占锁" style="rounded=1;whiteSpace=wrap;html=1;" vertex="1" parent="WIyWlLk6GJQsqaUBKTNV-1">
          <mxGeometry x="840" y="645" width="60" height="40" as="geometry" />
        </mxCell>
        <mxCell id="xUtmV8FWCzUYATDFEh71-102" style="edgeStyle=orthogonalEdgeStyle;rounded=0;orthogonalLoop=1;jettySize=auto;html=1;exitX=1;exitY=0.5;exitDx=0;exitDy=0;entryX=0;entryY=0.5;entryDx=0;entryDy=0;" edge="1" parent="WIyWlLk6GJQsqaUBKTNV-1" source="xUtmV8FWCzUYATDFEh71-100" target="xUtmV8FWCzUYATDFEh71-95">
          <mxGeometry relative="1" as="geometry" />
        </mxCell>
        <mxCell id="xUtmV8FWCzUYATDFEh71-173" style="edgeStyle=orthogonalEdgeStyle;rounded=0;orthogonalLoop=1;jettySize=auto;html=1;exitX=0.5;exitY=1;exitDx=0;exitDy=0;entryX=0.5;entryY=1;entryDx=0;entryDy=0;" edge="1" parent="WIyWlLk6GJQsqaUBKTNV-1" source="xUtmV8FWCzUYATDFEh71-100" target="xUtmV8FWCzUYATDFEh71-76">
          <mxGeometry relative="1" as="geometry" />
        </mxCell>
        <mxCell id="xUtmV8FWCzUYATDFEh71-174" value="下一秒重试" style="edgeLabel;html=1;align=center;verticalAlign=middle;resizable=0;points=[];" vertex="1" connectable="0" parent="xUtmV8FWCzUYATDFEh71-173">
          <mxGeometry x="-0.0307" relative="1" as="geometry">
            <mxPoint as="offset" />
          </mxGeometry>
        </mxCell>
        <mxCell id="xUtmV8FWCzUYATDFEh71-100" value="限频器" style="rounded=1;whiteSpace=wrap;html=1;" vertex="1" parent="WIyWlLk6GJQsqaUBKTNV-1">
          <mxGeometry x="170.13" y="947.5" width="120" height="60" as="geometry" />
        </mxCell>
        <mxCell id="xUtmV8FWCzUYATDFEh71-105" style="edgeStyle=orthogonalEdgeStyle;rounded=0;orthogonalLoop=1;jettySize=auto;html=1;exitX=1;exitY=0.5;exitDx=0;exitDy=0;entryX=0;entryY=0.5;entryDx=0;entryDy=0;" edge="1" parent="WIyWlLk6GJQsqaUBKTNV-1" source="xUtmV8FWCzUYATDFEh71-103" target="xUtmV8FWCzUYATDFEh71-27">
          <mxGeometry relative="1" as="geometry" />
        </mxCell>
        <mxCell id="xUtmV8FWCzUYATDFEh71-106" value="限流" style="edgeLabel;html=1;align=center;verticalAlign=middle;resizable=0;points=[];" vertex="1" connectable="0" parent="xUtmV8FWCzUYATDFEh71-105">
          <mxGeometry x="-0.1589" relative="1" as="geometry">
            <mxPoint as="offset" />
          </mxGeometry>
        </mxCell>
        <mxCell id="xUtmV8FWCzUYATDFEh71-103" value="限流器" style="rounded=1;whiteSpace=wrap;html=1;" vertex="1" parent="WIyWlLk6GJQsqaUBKTNV-1">
          <mxGeometry x="290.13" y="747.5" width="60" height="40" as="geometry" />
        </mxCell>
        <mxCell id="xUtmV8FWCzUYATDFEh71-165" style="edgeStyle=orthogonalEdgeStyle;rounded=0;orthogonalLoop=1;jettySize=auto;html=1;exitX=0.5;exitY=1;exitDx=0;exitDy=0;entryX=0.5;entryY=0;entryDx=0;entryDy=0;" edge="1" parent="WIyWlLk6GJQsqaUBKTNV-1" source="xUtmV8FWCzUYATDFEh71-109" target="xUtmV8FWCzUYATDFEh71-164">
          <mxGeometry relative="1" as="geometry" />
        </mxCell>
        <mxCell id="xUtmV8FWCzUYATDFEh71-109" value="增加失败次数" style="rounded=0;whiteSpace=wrap;html=1;" vertex="1" parent="WIyWlLk6GJQsqaUBKTNV-1">
          <mxGeometry x="417.25" y="438" width="80" height="37" as="geometry" />
        </mxCell>
        <mxCell id="xUtmV8FWCzUYATDFEh71-130" style="edgeStyle=orthogonalEdgeStyle;rounded=0;orthogonalLoop=1;jettySize=auto;html=1;exitX=1;exitY=0.5;exitDx=0;exitDy=0;entryX=0.25;entryY=0;entryDx=0;entryDy=0;" edge="1" parent="WIyWlLk6GJQsqaUBKTNV-1" source="xUtmV8FWCzUYATDFEh71-133" target="xUtmV8FWCzUYATDFEh71-118">
          <mxGeometry relative="1" as="geometry" />
        </mxCell>
        <mxCell id="xUtmV8FWCzUYATDFEh71-131" value="回调" style="edgeLabel;html=1;align=center;verticalAlign=middle;resizable=0;points=[];" vertex="1" connectable="0" parent="xUtmV8FWCzUYATDFEh71-130">
          <mxGeometry x="-0.0833" y="2" relative="1" as="geometry">
            <mxPoint as="offset" />
          </mxGeometry>
        </mxCell>
        <mxCell id="xUtmV8FWCzUYATDFEh71-112" value="DB" style="shape=cylinder3;whiteSpace=wrap;html=1;boundedLbl=1;backgroundOutline=1;size=15;" vertex="1" parent="WIyWlLk6GJQsqaUBKTNV-1">
          <mxGeometry x="420" y="325" width="60" height="80" as="geometry" />
        </mxCell>
        <mxCell id="xUtmV8FWCzUYATDFEh71-144" style="edgeStyle=orthogonalEdgeStyle;rounded=0;orthogonalLoop=1;jettySize=auto;html=1;exitX=0;exitY=0.25;exitDx=0;exitDy=0;entryX=1;entryY=0.25;entryDx=0;entryDy=0;" edge="1" parent="WIyWlLk6GJQsqaUBKTNV-1" source="xUtmV8FWCzUYATDFEh71-115" target="xUtmV8FWCzUYATDFEh71-95">
          <mxGeometry relative="1" as="geometry" />
        </mxCell>
        <mxCell id="xUtmV8FWCzUYATDFEh71-145" value="返回结果" style="edgeLabel;html=1;align=center;verticalAlign=middle;resizable=0;points=[];" vertex="1" connectable="0" parent="xUtmV8FWCzUYATDFEh71-144">
          <mxGeometry x="0.0933" y="3" relative="1" as="geometry">
            <mxPoint as="offset" />
          </mxGeometry>
        </mxCell>
        <mxCell id="xUtmV8FWCzUYATDFEh71-115" value="检查作业" style="rounded=1;whiteSpace=wrap;html=1;" vertex="1" parent="WIyWlLk6GJQsqaUBKTNV-1">
          <mxGeometry x="957" y="948" width="120" height="60" as="geometry" />
        </mxCell>
        <mxCell id="xUtmV8FWCzUYATDFEh71-116" value="&lt;h1&gt;提交作业状态&lt;/h1&gt;&lt;div&gt;&lt;div&gt;1、成功：提交执行作业成功，等待结果&lt;/div&gt;&lt;/div&gt;&lt;div&gt;2、失败：提交作业失败，一段时间后重入队列&lt;/div&gt;&lt;div&gt;3、重试：提交作业失败，立即重入队列&lt;/div&gt;" style="text;html=1;spacing=5;spacingTop=-20;whiteSpace=wrap;overflow=hidden;rounded=0;" vertex="1" parent="WIyWlLk6GJQsqaUBKTNV-1">
          <mxGeometry x="-470" y="645" width="310" height="125" as="geometry" />
        </mxCell>
        <mxCell id="xUtmV8FWCzUYATDFEh71-124" style="edgeStyle=orthogonalEdgeStyle;rounded=0;orthogonalLoop=1;jettySize=auto;html=1;exitX=1;exitY=0.5;exitDx=0;exitDy=0;entryX=0;entryY=0.5;entryDx=0;entryDy=0;" edge="1" parent="WIyWlLk6GJQsqaUBKTNV-1" source="xUtmV8FWCzUYATDFEh71-118" target="xUtmV8FWCzUYATDFEh71-123">
          <mxGeometry relative="1" as="geometry" />
        </mxCell>
        <mxCell id="xUtmV8FWCzUYATDFEh71-118" value="作业失败&lt;br&gt;回调" style="rounded=0;whiteSpace=wrap;html=1;" vertex="1" parent="WIyWlLk6GJQsqaUBKTNV-1">
          <mxGeometry x="650" y="415" width="120" height="60" as="geometry" />
        </mxCell>
        <mxCell id="xUtmV8FWCzUYATDFEh71-127" style="edgeStyle=orthogonalEdgeStyle;rounded=0;orthogonalLoop=1;jettySize=auto;html=1;exitX=0;exitY=0.5;exitDx=0;exitDy=0;entryX=1;entryY=0.5;entryDx=0;entryDy=0;" edge="1" parent="WIyWlLk6GJQsqaUBKTNV-1" source="xUtmV8FWCzUYATDFEh71-119" target="xUtmV8FWCzUYATDFEh71-109">
          <mxGeometry relative="1" as="geometry" />
        </mxCell>
        <mxCell id="xUtmV8FWCzUYATDFEh71-134" style="edgeStyle=orthogonalEdgeStyle;rounded=0;orthogonalLoop=1;jettySize=auto;html=1;exitX=0.5;exitY=0;exitDx=0;exitDy=0;entryX=0.5;entryY=1;entryDx=0;entryDy=0;" edge="1" parent="WIyWlLk6GJQsqaUBKTNV-1" source="xUtmV8FWCzUYATDFEh71-119" target="xUtmV8FWCzUYATDFEh71-133">
          <mxGeometry relative="1" as="geometry" />
        </mxCell>
        <mxCell id="xUtmV8FWCzUYATDFEh71-139" value="超过" style="edgeLabel;html=1;align=center;verticalAlign=middle;resizable=0;points=[];" vertex="1" connectable="0" parent="xUtmV8FWCzUYATDFEh71-134">
          <mxGeometry x="-0.0815" relative="1" as="geometry">
            <mxPoint y="1" as="offset" />
          </mxGeometry>
        </mxCell>
        <mxCell id="xUtmV8FWCzUYATDFEh71-119" value="超过次数" style="rhombus;whiteSpace=wrap;html=1;" vertex="1" parent="WIyWlLk6GJQsqaUBKTNV-1">
          <mxGeometry x="530" y="436.5" width="80" height="40" as="geometry" />
        </mxCell>
        <mxCell id="xUtmV8FWCzUYATDFEh71-123" value="作业失败" style="rounded=1;whiteSpace=wrap;html=1;" vertex="1" parent="WIyWlLk6GJQsqaUBKTNV-1">
          <mxGeometry x="950" y="415" width="120" height="60" as="geometry" />
        </mxCell>
        <mxCell id="xUtmV8FWCzUYATDFEh71-133" value="更新状态&lt;br&gt;回调成功&lt;br&gt;&lt;span style=&quot;font-size: 11px; background-color: rgb(255, 255, 255);&quot;&gt;更新为结束态&lt;br&gt;&lt;/span&gt;" style="rounded=0;whiteSpace=wrap;html=1;" vertex="1" parent="WIyWlLk6GJQsqaUBKTNV-1">
          <mxGeometry x="510" y="260" width="120" height="60" as="geometry" />
        </mxCell>
        <mxCell id="xUtmV8FWCzUYATDFEh71-135" style="edgeStyle=orthogonalEdgeStyle;rounded=0;orthogonalLoop=1;jettySize=auto;html=1;exitX=0;exitY=0.5;exitDx=0;exitDy=0;entryX=0.5;entryY=0;entryDx=0;entryDy=0;entryPerimeter=0;" edge="1" parent="WIyWlLk6GJQsqaUBKTNV-1" source="xUtmV8FWCzUYATDFEh71-133" target="xUtmV8FWCzUYATDFEh71-112">
          <mxGeometry relative="1" as="geometry" />
        </mxCell>
        <mxCell id="xUtmV8FWCzUYATDFEh71-140" value="更新" style="edgeLabel;html=1;align=center;verticalAlign=middle;resizable=0;points=[];" vertex="1" connectable="0" parent="xUtmV8FWCzUYATDFEh71-135">
          <mxGeometry x="-0.0947" y="-3" relative="1" as="geometry">
            <mxPoint as="offset" />
          </mxGeometry>
        </mxCell>
        <mxCell id="xUtmV8FWCzUYATDFEh71-137" style="edgeStyle=orthogonalEdgeStyle;rounded=0;orthogonalLoop=1;jettySize=auto;html=1;exitX=0.5;exitY=0;exitDx=0;exitDy=0;entryX=0.5;entryY=1;entryDx=0;entryDy=0;entryPerimeter=0;" edge="1" parent="WIyWlLk6GJQsqaUBKTNV-1" source="xUtmV8FWCzUYATDFEh71-109" target="xUtmV8FWCzUYATDFEh71-112">
          <mxGeometry relative="1" as="geometry" />
        </mxCell>
        <mxCell id="xUtmV8FWCzUYATDFEh71-143" value="&lt;h1&gt;检查作业状态&lt;/h1&gt;&lt;div&gt;&lt;div&gt;1、成功：任务执行中，稍后重试&lt;/div&gt;&lt;/div&gt;&lt;div&gt;2、失败：任务查询失败&lt;/div&gt;&lt;div&gt;3、重试：立即进行重试&lt;/div&gt;&lt;div&gt;4、完成：任务结束，不需要在检查&lt;/div&gt;" style="text;html=1;spacing=5;spacingTop=-20;whiteSpace=wrap;overflow=hidden;rounded=0;" vertex="1" parent="WIyWlLk6GJQsqaUBKTNV-1">
          <mxGeometry x="-470" y="800" width="310" height="125" as="geometry" />
        </mxCell>
        <mxCell id="xUtmV8FWCzUYATDFEh71-146" value="根据下次检查时间排序" style="text;html=1;align=center;verticalAlign=middle;whiteSpace=wrap;rounded=0;" vertex="1" parent="WIyWlLk6GJQsqaUBKTNV-1">
          <mxGeometry x="-120" y="805" width="127.63" height="35" as="geometry" />
        </mxCell>
        <mxCell id="xUtmV8FWCzUYATDFEh71-152" value="" style="edgeStyle=orthogonalEdgeStyle;rounded=0;orthogonalLoop=1;jettySize=auto;html=1;" edge="1" parent="WIyWlLk6GJQsqaUBKTNV-1" source="xUtmV8FWCzUYATDFEh71-149" target="xUtmV8FWCzUYATDFEh71-151">
          <mxGeometry relative="1" as="geometry" />
        </mxCell>
        <mxCell id="xUtmV8FWCzUYATDFEh71-175" style="edgeStyle=orthogonalEdgeStyle;rounded=0;orthogonalLoop=1;jettySize=auto;html=1;exitX=0;exitY=0.5;exitDx=0;exitDy=0;entryX=1;entryY=0.5;entryDx=0;entryDy=0;" edge="1" parent="WIyWlLk6GJQsqaUBKTNV-1" source="xUtmV8FWCzUYATDFEh71-149" target="xUtmV8FWCzUYATDFEh71-169">
          <mxGeometry relative="1" as="geometry" />
        </mxCell>
        <mxCell id="xUtmV8FWCzUYATDFEh71-176" style="edgeStyle=orthogonalEdgeStyle;rounded=0;orthogonalLoop=1;jettySize=auto;html=1;exitX=0.5;exitY=1;exitDx=0;exitDy=0;entryX=1;entryY=0.5;entryDx=0;entryDy=0;" edge="1" parent="WIyWlLk6GJQsqaUBKTNV-1" source="xUtmV8FWCzUYATDFEh71-149" target="xUtmV8FWCzUYATDFEh71-177">
          <mxGeometry relative="1" as="geometry">
            <mxPoint x="550" y="1320" as="targetPoint" />
          </mxGeometry>
        </mxCell>
        <mxCell id="xUtmV8FWCzUYATDFEh71-149" value="状态" style="rhombus;whiteSpace=wrap;html=1;" vertex="1" parent="WIyWlLk6GJQsqaUBKTNV-1">
          <mxGeometry x="487.5" y="1180" width="125" height="70" as="geometry" />
        </mxCell>
        <mxCell id="xUtmV8FWCzUYATDFEh71-153" style="edgeStyle=orthogonalEdgeStyle;rounded=0;orthogonalLoop=1;jettySize=auto;html=1;exitX=0.5;exitY=0;exitDx=0;exitDy=0;entryX=0;entryY=1;entryDx=0;entryDy=0;" edge="1" parent="WIyWlLk6GJQsqaUBKTNV-1" source="xUtmV8FWCzUYATDFEh71-151" target="xUtmV8FWCzUYATDFEh71-119">
          <mxGeometry relative="1" as="geometry">
            <Array as="points">
              <mxPoint x="550" y="1000" />
            </Array>
          </mxGeometry>
        </mxCell>
        <mxCell id="xUtmV8FWCzUYATDFEh71-151" value="执行失败" style="rounded=0;whiteSpace=wrap;html=1;" vertex="1" parent="WIyWlLk6GJQsqaUBKTNV-1">
          <mxGeometry x="505" y="1007.5" width="90" height="30" as="geometry" />
        </mxCell>
        <mxCell id="xUtmV8FWCzUYATDFEh71-166" style="edgeStyle=orthogonalEdgeStyle;rounded=0;orthogonalLoop=1;jettySize=auto;html=1;exitX=0;exitY=0.5;exitDx=0;exitDy=0;entryX=1;entryY=0.75;entryDx=0;entryDy=0;" edge="1" parent="WIyWlLk6GJQsqaUBKTNV-1" source="xUtmV8FWCzUYATDFEh71-164" target="xUtmV8FWCzUYATDFEh71-54">
          <mxGeometry relative="1" as="geometry" />
        </mxCell>
        <mxCell id="xUtmV8FWCzUYATDFEh71-167" style="edgeStyle=orthogonalEdgeStyle;rounded=0;orthogonalLoop=1;jettySize=auto;html=1;exitX=0.5;exitY=1;exitDx=0;exitDy=0;entryX=0.5;entryY=0;entryDx=0;entryDy=0;" edge="1" parent="WIyWlLk6GJQsqaUBKTNV-1" source="xUtmV8FWCzUYATDFEh71-164" target="xUtmV8FWCzUYATDFEh71-168">
          <mxGeometry relative="1" as="geometry">
            <mxPoint x="450" y="1030" as="targetPoint" />
          </mxGeometry>
        </mxCell>
        <mxCell id="xUtmV8FWCzUYATDFEh71-164" value="任务状态" style="rhombus;whiteSpace=wrap;html=1;" vertex="1" parent="WIyWlLk6GJQsqaUBKTNV-1">
          <mxGeometry x="420" y="535" width="76" height="45" as="geometry" />
        </mxCell>
        <mxCell id="xUtmV8FWCzUYATDFEh71-168" value="计算下次检查时间" style="rounded=0;whiteSpace=wrap;html=1;" vertex="1" parent="WIyWlLk6GJQsqaUBKTNV-1">
          <mxGeometry x="397" y="1060" width="122" height="42.5" as="geometry" />
        </mxCell>
        <mxCell id="xUtmV8FWCzUYATDFEh71-170" style="edgeStyle=orthogonalEdgeStyle;rounded=0;orthogonalLoop=1;jettySize=auto;html=1;exitX=0.5;exitY=0;exitDx=0;exitDy=0;entryX=0.5;entryY=1;entryDx=0;entryDy=0;" edge="1" parent="WIyWlLk6GJQsqaUBKTNV-1" source="xUtmV8FWCzUYATDFEh71-169" target="xUtmV8FWCzUYATDFEh71-168">
          <mxGeometry relative="1" as="geometry" />
        </mxCell>
        <mxCell id="xUtmV8FWCzUYATDFEh71-169" value="执行成功" style="rounded=0;whiteSpace=wrap;html=1;" vertex="1" parent="WIyWlLk6GJQsqaUBKTNV-1">
          <mxGeometry x="330" y="1200" width="90" height="30" as="geometry" />
        </mxCell>
        <mxCell id="xUtmV8FWCzUYATDFEh71-171" style="edgeStyle=orthogonalEdgeStyle;rounded=0;orthogonalLoop=1;jettySize=auto;html=1;exitX=0;exitY=0.5;exitDx=0;exitDy=0;entryX=0;entryY=0.5;entryDx=0;entryDy=0;" edge="1" parent="WIyWlLk6GJQsqaUBKTNV-1" source="xUtmV8FWCzUYATDFEh71-168" target="xUtmV8FWCzUYATDFEh71-82">
          <mxGeometry relative="1" as="geometry" />
        </mxCell>
        <mxCell id="xUtmV8FWCzUYATDFEh71-177" value="执行结束" style="rounded=0;whiteSpace=wrap;html=1;" vertex="1" parent="WIyWlLk6GJQsqaUBKTNV-1">
          <mxGeometry x="330" y="1300" width="90" height="30" as="geometry" />
        </mxCell>
        <mxCell id="xUtmV8FWCzUYATDFEh71-178" value="DB" style="shape=cylinder3;whiteSpace=wrap;html=1;boundedLbl=1;backgroundOutline=1;size=15;" vertex="1" parent="WIyWlLk6GJQsqaUBKTNV-1">
          <mxGeometry x="200.13" y="1275" width="60" height="80" as="geometry" />
        </mxCell>
        <mxCell id="xUtmV8FWCzUYATDFEh71-179" style="edgeStyle=orthogonalEdgeStyle;rounded=0;orthogonalLoop=1;jettySize=auto;html=1;exitX=0;exitY=0.5;exitDx=0;exitDy=0;entryX=1;entryY=0.5;entryDx=0;entryDy=0;entryPerimeter=0;" edge="1" parent="WIyWlLk6GJQsqaUBKTNV-1" source="xUtmV8FWCzUYATDFEh71-177" target="xUtmV8FWCzUYATDFEh71-178">
          <mxGeometry relative="1" as="geometry" />
        </mxCell>
        <mxCell id="xUtmV8FWCzUYATDFEh71-180" value="更新" style="edgeLabel;html=1;align=center;verticalAlign=middle;resizable=0;points=[];" vertex="1" connectable="0" parent="xUtmV8FWCzUYATDFEh71-179">
          <mxGeometry x="-0.084" y="1" relative="1" as="geometry">
            <mxPoint as="offset" />
          </mxGeometry>
        </mxCell>
      </root>
    </mxGraphModel>
  </diagram>
</mxfile>
